<svg width="56" height="56" viewBox="0 0 56 56" fill="none" xmlns="http://www.w3.org/2000/svg">
<path d="M28.4819 53.3125C42.4616 53.3125 53.7944 41.9797 53.7944 28C53.7944 14.0203 42.4616 2.6875 28.4819 2.6875C14.5022 2.6875 3.16943 14.0203 3.16943 28C3.16943 41.9797 14.5022 53.3125 28.4819 53.3125Z" stroke="#253965" stroke-width="3" stroke-linecap="round" stroke-linejoin="round"/>
<path d="M28.4819 36.4375C34.3068 36.4375 39.0288 31.7155 39.0288 25.8906C39.0288 20.0657 34.3068 15.3438 28.4819 15.3438C22.6571 15.3438 17.9351 20.0657 17.9351 25.8906C17.9351 31.7155 22.6571 36.4375 28.4819 36.4375Z" stroke="#253965" stroke-width="3" stroke-linecap="round" stroke-linejoin="round"/>
<path d="M11.5542 46.8193C13.1431 43.6954 15.5655 41.072 18.5532 39.2397C21.5409 37.4074 24.9773 36.4375 28.4821 36.4375C31.987 36.4375 35.4234 37.4073 38.4111 39.2397C41.3988 41.072 43.8212 43.6953 45.4101 46.8193" stroke="#253965" stroke-width="3" stroke-linecap="round" stroke-linejoin="round"/>
</svg>
