<svg width="32" height="32" viewBox="0 0 32 32" fill="none" xmlns="http://www.w3.org/2000/svg">
<path d="M22 3H10C8.89543 3 8 3.89543 8 5V27C8 28.1046 8.89543 29 10 29H22C23.1046 29 24 28.1046 24 27V5C24 3.89543 23.1046 3 22 3Z" stroke="#253965" stroke-width="2" stroke-linecap="round" stroke-linejoin="round"/>
<path d="M8 7H24" stroke="#253965" stroke-width="2" stroke-linecap="round" stroke-linejoin="round"/>
<path d="M8 25H24" stroke="#253965" stroke-width="2" stroke-linecap="round" stroke-linejoin="round"/>
<path d="M12.1343 18.8461C12.5736 17.9619 12.8016 16.9878 12.8001 16.0005C12.7997 15.5207 12.9073 15.0469 13.1151 14.6145C13.3228 14.182 13.6253 13.8019 14.0001 13.5023" stroke="#253965" stroke-linecap="round" stroke-linejoin="round"/>
<path d="M16.0005 16.0005C16.0031 17.6269 15.5904 19.2271 14.8018 20.6495" stroke="#253965" stroke-linecap="round" stroke-linejoin="round"/>
<path d="M14.4004 16.0005C14.4004 15.5762 14.569 15.1692 14.869 14.8691C15.1691 14.5691 15.576 14.4005 16.0004 14.4005C16.4247 14.4005 16.8317 14.5691 17.1318 14.8691C17.4318 15.1692 17.6004 15.5762 17.6004 16.0005C17.6027 17.6497 17.2394 19.2789 16.5366 20.7708" stroke="#253965" stroke-linecap="round" stroke-linejoin="round"/>
<path d="M20.5283 18.8004C20.7097 17.8781 20.8008 16.9403 20.8004 16.0004C20.8004 14.7273 20.2947 13.5064 19.3945 12.6063C18.4943 11.7061 17.2734 11.2004 16.0004 11.2004C14.7273 11.2004 13.5064 11.7061 12.6063 12.6063C11.7061 13.5064 11.2004 14.7273 11.2004 16.0004C11.201 16.5454 11.1086 17.0865 10.9272 17.6004" stroke="#253965" stroke-linecap="round" stroke-linejoin="round"/>
<path d="M14.2402 17.6004C14.0694 18.4415 13.7636 19.2494 13.3345 19.9926" stroke="#253965" stroke-linecap="round" stroke-linejoin="round"/>
<path d="M15.6006 12.8252C16.051 12.7689 16.5082 12.809 16.9419 12.9427C17.3757 13.0765 17.776 13.301 18.1165 13.6012C18.4569 13.9015 18.7296 14.2707 18.9165 14.6843C19.1034 15.0979 19.2002 15.5466 19.2006 16.0005C19.2007 16.5353 19.1676 17.0697 19.1016 17.6005" stroke="#253965" stroke-linecap="round" stroke-linejoin="round"/>
<path d="M18.7971 19.2004C18.721 19.4963 18.6346 19.788 18.5381 20.0754" stroke="#253965" stroke-linecap="round" stroke-linejoin="round"/>
</svg>
